<svg viewBox="0 0 450 300" xmlns="http://www.w3.org/2000/svg">
  <g transform="translate(10,-120)">
    <path fill="#2C2820" d="M 90 308 C 129 301, 230 273, 311 172 C 305 211, 252 267, 126 296 C 110 300, 99 304, 90 308 Z"/>
    <path fill="#2C2820" d="M 95 312 C 145 306, 254 272, 338 160 C 330 210, 270 277, 142 303 C 125 307, 108 311, 95 312 Z"/>
    <path fill="#2C2820" d="M 100 316 C 163 313, 279 275, 365 151 C 352 212, 285 286, 157 310 C 137 313, 117 316, 100 316 Z"/>
    <path fill="#2C2820" d="M 105 320 C 180 320, 300 280, 388 143 C 370 215, 298 294, 172 317 C 149 320, 125 321, 105 320 Z"/>
    <path fill="#2C2820" d="M 110 324 C 196 328, 321 288, 400 138 C 382 220, 309 302, 185 324 C 160 327, 133 327, 110 324 Z"/></g>
</svg>