<svg viewBox="0 0 400 540" xmlns="http://www.w3.org/2000/svg">
  <style>.t1{font-family:Cormorant Garamond,Garamond,serif;font-weight:300;fill:#2C2820;letter-spacing:.08em}.t2{font-family:Noto Serif SC,serif;font-weight:300;fill:#2C2820}</style>
  <rect width="400" height="540" fill="#F5F0E8"/>
  <rect x="50" y="30" width="300" height="380" rx="4" fill="none" stroke="#2C2820" stroke-width="1.5"/>
  <rect x="57" y="37" width="286" height="366" rx="3" fill="none" stroke="#2C2820" stroke-width="0.5"/>
  <g transform="translate(45,0) scale(0.7)">
    <path fill="#2C2820" d="M 90 308 C 129 301, 230 273, 311 172 C 305 211, 252 267, 126 296 C 110 300, 99 304, 90 308 Z"/>
    <path fill="#2C2820" d="M 95 312 C 145 306, 254 272, 338 160 C 330 210, 270 277, 142 303 C 125 307, 108 311, 95 312 Z"/>
    <path fill="#2C2820" d="M 100 316 C 163 313, 279 275, 365 151 C 352 212, 285 286, 157 310 C 137 313, 117 316, 100 316 Z"/>
    <path fill="#2C2820" d="M 105 320 C 180 320, 300 280, 388 143 C 370 215, 298 294, 172 317 C 149 320, 125 321, 105 320 Z"/>
    <path fill="#2C2820" d="M 110 324 C 196 328, 321 288, 400 138 C 382 220, 309 302, 185 324 C 160 327, 133 327, 110 324 Z"/></g>
  <line x1="90" y1="340" x2="310" y2="340" stroke="#2C2820" stroke-width="0.5"/>
  <text x="200" y="365" text-anchor="middle" class="t1" font-size="9" letter-spacing=".2em">— EX LIBRIS —</text>
  <text x="200" y="390" text-anchor="middle" class="t1" font-size="13" letter-spacing=".12em">BIBLIOTHECA TALARIA</text>
  <text x="200" y="480" text-anchor="middle" class="t1" font-size="22">BIBLIOTHECA TALARIA</text>
  <text x="200" y="508" text-anchor="middle" class="t2" font-size="12">Talaria的赛博图书馆</text>
</svg>